<?xml version="1.0" encoding="utf-8"?>
<!-- Generator: Adobe Illustrator 16.0.0, SVG Export Plug-In . SVG Version: 6.00 Build 0)  -->
<!DOCTYPE svg PUBLIC "-//W3C//DTD SVG 1.1//EN" "http://www.w3.org/Graphics/SVG/1.1/DTD/svg11.dtd">
<svg version="1.1" id="Layer_1" xmlns="http://www.w3.org/2000/svg" xmlns:xlink="http://www.w3.org/1999/xlink" x="0px" y="0px"
	 width="1814.17px" height="1360.629px" viewBox="0 0 1814.17 1360.629" enable-background="new 0 0 1814.17 1360.629"
	 xml:space="preserve">

    <svg id="square">
        <polygon points="698.527,612.734 599.732,540.955 561.995,424.814 599.732,308.674 698.527,236.895 820.644,236.895 919.44,308.674 
    	957.176,424.814 919.44,540.955 820.644,612.734 "/>
    </svg>
    <svg id="circle">
        <polygon points="794.89,1108.167 775.593,1106.267 756.575,1102.483 738.019,1096.854 720.105,1089.435 703.004,1080.293 
    	686.881,1069.521 671.892,1057.22 658.181,1043.508 645.88,1028.519 635.107,1012.396 625.966,995.295 618.546,977.381 
    	612.917,958.825 609.134,939.807 607.233,920.51 607.233,901.119 609.134,881.822 612.917,862.804 618.546,844.248 625.966,826.334 
    	635.107,809.232 645.88,793.11 658.181,778.121 671.892,764.409 686.881,752.108 703.004,741.336 720.105,732.194 738.019,724.774 
    	756.575,719.146 775.593,715.362 794.89,713.462 814.281,713.462 833.578,715.362 852.596,719.146 871.152,724.774 889.067,732.194 
    	906.168,741.336 922.29,752.108 937.28,764.409 950.99,778.121 963.292,793.11 974.065,809.232 983.205,826.334 990.626,844.248 
    	996.255,862.804 1000.037,881.822 1001.938,901.119 1001.938,920.51 1000.037,939.807 996.255,958.825 990.626,977.381 
    	983.205,995.295 974.065,1012.396 963.292,1028.519 950.99,1043.508 937.28,1057.22 922.29,1069.521 906.168,1080.293 
    	889.067,1089.435 871.152,1096.854 852.596,1102.483 833.578,1106.267 814.281,1108.167 "/>
    </svg>
    <svg id="pentagon">
        <polygon points="183.365,1198.814 111.585,977.901 299.505,841.369 487.425,977.901 415.646,1198.814 "/>
    </svg>
    <svg id="star">
    <polygon points="1260.198,424.814 1325.9,557.939 1472.812,579.287 1366.505,682.91 1391.601,829.229 1260.198,760.146 
    	1128.796,829.229 1153.892,682.91 1047.585,579.287 1194.497,557.939 "/>
    </svg>
    <svg id="star5">
	<polygon style="fill:#4E4E50;" points="22.137,19.625 32,12 20,12 16,0 12,12 0,12 9.875,19.594 6,32 16.016,24.32 26.008,32"/>
    </svg>
    <svg id="triangle">
        <polygon points="129.467,748.609 300.586,452.224 471.704,748.609 "/>
    </svg>
    <svg id="heart2">
        <path d="M1290.141,1045.814c0,0,9-72,72-72c54.444,0,54.444,63,54.444,90c0,54-126.444,81-126.444,126c0-45-126.556-76.502-126-144
    	c0.444-54,22.5-72,54-72C1281.585,973.814,1290.141,1045.814,1290.141,1045.814z"/>
    </svg>
    
    <svg id="letter-A">
        <path d="M337.779,820.484h-41.812l-5.809,19.674h-37.603l44.795-119.184h40.172l44.786,119.184h-38.566L337.779,820.484z
        	M330.14,794.712l-13.155-42.845l-13.018,42.845H330.14z"/>
    </svg>
    
    <svg id="x">
        <polygon style="fill:#4E4E50;" points="28,22.398 19.594,14 28,5.602 22.398,0 14,8.402 5.598,0 0,5.602 8.398,14 0,22.398 5.598,28 14,19.598 22.398,28"/>
    </svg>
    
    <svg id="umbrella">
        <path style="fill:#4E4E50;" d="M16,0C7.18,0,0,7.178,0,16h4c0-0.826,0.676-1.5,1.5-1.5C6.328,14.5,7,15.174,7,16h4
		c0-0.826,0.676-1.5,1.5-1.5c0.828,0,1.5,0.674,1.5,1.5v10c0,1.102-0.895,2-2,2c-1.102,0-2-0.898-2-2H6c0,3.309,2.695,6,6,6
		c3.312,0,6-2.691,6-6V16c0-0.826,0.676-1.5,1.5-1.5c0.828,0,1.5,0.674,1.5,1.5h4c0-0.826,0.676-1.5,1.5-1.5
		c0.828,0,1.5,0.674,1.5,1.5h4C32,7.178,24.824,0,16,0z"/>
    </svg>
    
    
    
    <svg id="rss_x5F_alt">
	<path style="fill:#4E4E50;" d="M32,32h-4.57C27.43,16.875,15.125,4.572,0,4.572V0C17.641,0,32,14.355,32,32L32,32z"/>
	<path style="fill:#4E4E50;" d="M22.855,32h-4.57c0-10.082-8.207-18.285-18.285-18.285V9.143C12.602,9.143,22.855,19.398,22.855,32
		L22.855,32z"/>
	<path style="fill:#4E4E50;" d="M13.715,32H9.141c0-5.043-4.098-9.141-9.141-9.141v-4.574C7.562,18.285,13.715,24.438,13.715,32
		L13.715,32z"/>
	<path style="fill:#4E4E50;" d="M4.57,32c0-2.523-2.043-4.57-4.57-4.57V32H4.57z"/>
    </svg>
    
    <svg id="rain">

	<path style="fill:#4E4E50;" d="M24,4c-0.379,0-0.738,0.061-1.102,0.111C21.504,1.646,18.926,0,16,0
		c-2.988,0-5.566,1.666-6.941,4.1C8.707,4.053,8.355,4,8,4c-4.41,0-8,3.588-8,8s3.59,8,8,8h16c4.41,0,8-3.588,8-8S28.41,4,24,4z
		 M24,16H8c-2.207,0-4-1.795-4-4c0-2.193,1.941-3.885,4.004-3.945c0.008,0.943,0.172,1.869,0.5,2.744l3.746-1.402
		C12.082,8.953,12,8.482,12,8c0-2.205,1.793-4,4-4c1.293,0,2.465,0.641,3.199,1.639C17.27,7.1,16,9.395,16,12h4
		c0-2.205,1.793-4,4-4s4,1.795,4,4S26.207,16,24,16z"/>
	<path style="fill:#4E4E50;" d="M3.281,27.438c-0.75,0.75-1.969,0.75-2.719,0s-0.75-1.969,0-2.719S6,22,6,22
		S4.031,26.688,3.281,27.438z"/>
	<path style="fill:#4E4E50;" d="M11.285,27.438c-0.75,0.75-1.965,0.75-2.719,0c-0.75-0.75-0.75-1.969,0-2.719
		C9.32,23.969,14.004,22,14.004,22S12.039,26.688,11.285,27.438z"/>
	<path style="fill:#4E4E50;" d="M19.281,27.438c-0.75,0.75-1.969,0.75-2.719,0s-0.75-1.969,0-2.719S22,22,22,22
		S20.031,26.688,19.281,27.438z"/>
    </svg>
    <svg id="moon_x5F_fill">
	
	<path style="fill:#4E4E50;" d="M24.633,22.184c-8.188,0-14.82-6.637-14.82-14.82c0-2.695,0.773-5.188,2.031-7.363
		C5.02,1.969,0,8.188,0,15.645C0,24.676,7.32,32,16.352,32c7.457,0,13.68-5.023,15.648-11.844
		C29.82,21.41,27.328,22.184,24.633,22.184z"/>
    </svg>

    <svg id="hash">
	<path style="fill:#4E4E50;" d="M28,12V8h-5.004l1-8h-4l-1,8h-7.998l1-8h-4l-1,8H0v4h6.498L5.5,20H0v4h5l-1,8h4l1-8h8l-1.002,8H20
		l1-8h7v-4h-6.5l0.996-8H28z M17.5,20h-8l0.998-8h7.998L17.5,20z"/>
    </svg>
    
    <svg id="curved_x5F_arrow">
	<path style="fill:#4E4E50;" d="M28,14c0-7.73-6.27-14-14-14S0,6.27,0,14C0,8.477,4.477,4,10,4s10,4.477,10,10v2h-4l8,8l8-8h-4V14z"
		/>
    </svg>
    
    <svg id="comment_x5F_alt2_x5F_fill">
	<path style="fill:#4E4E50;" d="M14,0C6.27,0,0,6.27,0,14c0,3.832,1.547,7.297,4.043,9.828L4,32l6.703-4.434
			C11.766,27.828,12.859,28,14,28c7.73,0,14-6.27,14-14S21.73,0,14,0z"/>
    </svg>
</svg>
