<?xml version="1.0" encoding="utf-8"?>
<!DOCTYPE svg PUBLIC "-//W3C//DTD SVG 1.1//EN" "http://www.w3.org/Graphics/SVG/1.1/DTD/svg11.dtd">
<svg version="1.1" id="Layer_1" xmlns="http://www.w3.org/2000/svg" xmlns:xlink="http://www.w3.org/1999/xlink" x="0px" y="0px"
	 width="1814.17px" height="1360.629px" viewBox="0 0 1814.17 1360.629" enable-background="new 0 0 1814.17 1360.629"
	 xml:space="preserve">

    <svg id="square">
        <polygon points="698.527,612.734 599.732,540.955 561.995,424.814 599.732,308.674 698.527,236.895 820.644,236.895 919.44,308.674 
    	957.176,424.814 919.44,540.955 820.644,612.734 "/>
    </svg>
    <svg id="circle">
        <polygon points="794.89,1108.167 775.593,1106.267 756.575,1102.483 738.019,1096.854 720.105,1089.435 703.004,1080.293 
    	686.881,1069.521 671.892,1057.22 658.181,1043.508 645.88,1028.519 635.107,1012.396 625.966,995.295 618.546,977.381 
    	612.917,958.825 609.134,939.807 607.233,920.51 607.233,901.119 609.134,881.822 612.917,862.804 618.546,844.248 625.966,826.334 
    	635.107,809.232 645.88,793.11 658.181,778.121 671.892,764.409 686.881,752.108 703.004,741.336 720.105,732.194 738.019,724.774 
    	756.575,719.146 775.593,715.362 794.89,713.462 814.281,713.462 833.578,715.362 852.596,719.146 871.152,724.774 889.067,732.194 
    	906.168,741.336 922.29,752.108 937.28,764.409 950.99,778.121 963.292,793.11 974.065,809.232 983.205,826.334 990.626,844.248 
    	996.255,862.804 1000.037,881.822 1001.938,901.119 1001.938,920.51 1000.037,939.807 996.255,958.825 990.626,977.381 
    	983.205,995.295 974.065,1012.396 963.292,1028.519 950.99,1043.508 937.28,1057.22 922.29,1069.521 906.168,1080.293 
    	889.067,1089.435 871.152,1096.854 852.596,1102.483 833.578,1106.267 814.281,1108.167 "/>
    </svg>
    <svg id="pentagon">
        <polygon points="183.365,1198.814 111.585,977.901 299.505,841.369 487.425,977.901 415.646,1198.814 "/>
    </svg>
    <svg id="star5">
	<polygon points="22.137,19.625 32,12 20,12 16,0 12,12 0,12 9.875,19.594 6,32 16.016,24.32 26.008,32"/>
    </svg>
    <svg id="triangle">
        <polygon points="129.467,748.609 300.586,452.224 471.704,748.609 "/>
    </svg>
    <svg id="heart3">
    	<path d="M774.055,646c0,0,2.531-45.517,65.531-45.517c43,0,60.913,43.667,60.913,62.517c0,89.48-126.444,99-126.444,144
	c0-45-126.002-54.52-126-144c0.167-20.344,18.901-62.186,59.864-62.186C771.364,600.814,774.055,646,774.055,646z"/>
    </svg>
    
    
    <svg id="x">
        <polygon points="28,22.398 19.594,14 28,5.602 22.398,0 14,8.402 5.598,0 0,5.602 8.398,14 0,22.398 5.598,28 14,19.598 22.398,28"/>
    </svg>
    
    <svg id="umbrella">
        <path d="M16,0C7.18,0,0,7.178,0,16h4c0-0.826,0.676-1.5,1.5-1.5C6.328,14.5,7,15.174,7,16h4
		c0-0.826,0.676-1.5,1.5-1.5c0.828,0,1.5,0.674,1.5,1.5v10c0,1.102-0.895,2-2,2c-1.102,0-2-0.898-2-2H6c0,3.309,2.695,6,6,6
		c3.312,0,6-2.691,6-6V16c0-0.826,0.676-1.5,1.5-1.5c0.828,0,1.5,0.674,1.5,1.5h4c0-0.826,0.676-1.5,1.5-1.5
		c0.828,0,1.5,0.674,1.5,1.5h4C32,7.178,24.824,0,16,0z"/>
    </svg>
    
    <svg id="rss_x5F_alt">
	<path d="M32,32h-4.57C27.43,16.875,15.125,4.572,0,4.572V0C17.641,0,32,14.355,32,32L32,32z"/>
	<path d="M22.855,32h-4.57c0-10.082-8.207-18.285-18.285-18.285V9.143C12.602,9.143,22.855,19.398,22.855,32
		L22.855,32z"/>
	<path d="M13.715,32H9.141c0-5.043-4.098-9.141-9.141-9.141v-4.574C7.562,18.285,13.715,24.438,13.715,32
		L13.715,32z"/>
	<path d="M4.57,32c0-2.523-2.043-4.57-4.57-4.57V32H4.57z"/>
    </svg>
    
    <svg id="rain">

	<path d="M24,4c-0.379,0-0.738,0.061-1.102,0.111C21.504,1.646,18.926,0,16,0
		c-2.988,0-5.566,1.666-6.941,4.1C8.707,4.053,8.355,4,8,4c-4.41,0-8,3.588-8,8s3.59,8,8,8h16c4.41,0,8-3.588,8-8S28.41,4,24,4z"/>
	<path d="M3.281,27.438c-0.75,0.75-1.969,0.75-2.719,0s-0.75-1.969,0-2.719S6,22,6,22
		S4.031,26.688,3.281,27.438z"/>
	<path d="M11.285,27.438c-0.75,0.75-1.965,0.75-2.719,0c-0.75-0.75-0.75-1.969,0-2.719
		C9.32,23.969,14.004,22,14.004,22S12.039,26.688,11.285,27.438z"/>
	<path d="M19.281,27.438c-0.75,0.75-1.969,0.75-2.719,0s-0.75-1.969,0-2.719S22,22,22,22
		S20.031,26.688,19.281,27.438z"/>
    </svg>
    <svg id="moon_x5F_fill">
	
	<path d="M24.633,22.184c-8.188,0-14.82-6.637-14.82-14.82c0-2.695,0.773-5.188,2.031-7.363
		C5.02,1.969,0,8.188,0,15.645C0,24.676,7.32,32,16.352,32c7.457,0,13.68-5.023,15.648-11.844
		C29.82,21.41,27.328,22.184,24.633,22.184z"/>
    </svg>

    
    <svg id="curved_arrow">
	<path d="M28,14c0-7.73-6.27-14-14-14S0,6.27,0,14C0,8.477,4.477,4,10,4s10,4.477,10,10v2h-4l8,8l8-8h-4V14z"
		/>
    </svg>
    
    <!-- pro shapes -->
    
    <svg class="pro" id="hash">
	<path d="M28,12V8h-5.004l1-8h-4l-1,8h-7.998l1-8h-4l-1,8H0v4h6.498L5.5,20H0v4h5l-1,8h4l1-8h8l-1.002,8H20
		l1-8h7v-4h-6.5l0.996-8H28z M17.5,20h-8l0.998-8h7.998L17.5,20z"/>
    </svg>
    
    <svg class="pro" id="comment_bubble">
	<path d="M14,0C6.27,0,0,6.27,0,14c0,3.832,1.547,7.297,4.043,9.828L4,32l6.703-4.434
			C11.766,27.828,12.859,28,14,28c7.73,0,14-6.27,14-14S21.73,0,14,0z"/>
    </svg>
    
     <svg class="pro" id="ampersand">
        <path d="M9.433,32c-2.58,0-4.939-0.898-6.74-2.695c-3.59-3.594-3.59-9.445,0-13.035l8.336-7.938
                c0.461-0.465,0.727-1.102,0.727-1.785c0-0.68-0.266-1.32-0.742-1.805C10.021,3.75,8.181,3.754,7.181,4.746
                C6.196,5.738,6.196,7.355,7.188,8.348L4.356,11.18C1.806,8.625,1.806,4.473,4.353,1.918c2.562-2.559,6.934-2.555,9.49-0.004
                c1.242,1.238,1.922,2.887,1.922,4.637s-0.68,3.395-1.922,4.629l-8.338,7.934c-2.02,2.016-2.02,5.328,0.02,7.363
                c2.031,2.035,5.566,2.031,7.607,0c2.031-2.035,2.031-5.348,0-7.379l-1.424-1.414l4.354-4.348l2.602,2.828l-1.672,1.672
                c2.266,3.562,1.852,8.359-1.031,11.469C14.163,31.102,11.794,32,9.433,32L9.433,32z"/>
    </svg>

    <svg class="pro" id="aperture_x5F_alt">
        <path d="M30.309,8.973l-9.973,9.973h11.367C31.883,17.984,32,17.008,32,16
                C32,13.467,31.359,11.102,30.309,8.973z"/>
        <path d="M21.055,15.24l8.203-8.199c-1.953-2.879-4.844-5.021-8.203-6.146V15.24z"/>
        <path d="M16.748,21.055l8.205,8.207c2.883-1.949,5.027-4.844,6.152-8.207H16.748z"/>
        <path d="M18.943,11.744V0.297C17.986,0.119,17.008,0,16,0c-2.555,0-4.938,0.654-7.08,1.721L18.943,11.744z"
                />
        <path d="M13.057,20.352v11.352C14.014,31.883,14.992,32,16,32c2.531,0,4.891-0.641,7.02-1.688
                L13.057,20.352z"/>
        <path d="M10.943,16.773L2.75,24.965c1.949,2.875,4.838,5.016,8.193,6.141V16.773z"/>
        <path d="M0.297,13.057C0.119,14.014,0,14.992,0,16c0,2.539,0.645,4.906,1.695,7.035l9.979-9.979H0.297z"/>
        <path d="M6.996,2.781C4.141,4.73,2.014,7.604,0.895,10.943h14.264L6.996,2.781z"/>
    </svg>

    <svg class="pro" id="arrow_x5F_down">
        <path d="M32,16.016l-5.672-5.664c0,0-3.18,3.18-6.312,6.312V0h-8.023v16.664l-6.32-6.32L0,16.016L16,32
                L32,16.016z"/>
    </svg>
    <svg class="pro" id="bolt">
        <polygon points="32,0 8,16 14,20 0,32 24,20 18,16 "/>
    </svg>

    <svg class="pro" id="chart_x5F_alt">
        <path d="M14.534,19.422L3.956,8.844c-5.275,6.086-5.275,15.07,0,21.156L14.534,19.422z"/>
        <path d="M16.118,18V0c-4.99,0.305-9.412,2.18-12.982,5.102L16.118,18z"/>
        <path d="M18.087,4.016v14.812L7.62,29.211C9.948,30.922,12.753,32,15.937,32
                c7.818,0,14.064-6.328,14.064-14.133C30.001,10.789,24.856,5.055,18.087,4.016z"/>
    </svg>

    <svg class="pro" id="cloud">
        <path d="M24,4c-0.379,0-0.738,0.061-1.102,0.111C21.504,1.646,18.926,0,16,0c-2.988,0-5.566,1.666-6.941,4.1
                C8.707,4.053,8.355,4,8,4c-4.41,0-8,3.588-8,8c0,4.414,3.59,8,8,8h16c4.41,0,8-3.586,8-8C32,7.588,28.41,4,24,4z"/>
    </svg>

    <svg class="pro" id="cog">
        <path d="M32,17.969v-4l-4.781-1.992c-0.133-0.375-0.273-0.738-0.445-1.094l1.93-4.805L25.875,3.25
                l-4.762,1.961c-0.363-0.176-0.734-0.324-1.117-0.461L17.969,0h-4l-1.977,4.734c-0.398,0.141-0.781,0.289-1.16,0.469l-4.754-1.91
                L3.25,6.121l1.938,4.711C5,11.219,4.848,11.613,4.703,12.02L0,14.031v4l4.707,1.961c0.145,0.406,0.301,0.801,0.488,1.188
                l-1.902,4.742l2.828,2.828l4.723-1.945c0.379,0.18,0.766,0.324,1.164,0.461L14.031,32h4l1.98-4.758
                c0.379-0.141,0.754-0.289,1.113-0.461l4.797,1.922l2.828-2.828l-1.969-4.773c0.168-0.359,0.305-0.723,0.438-1.094L32,17.969z
                 "/>
    </svg>
    
    <svg class="pro" id="letter-A">
        <path d="M337.779,820.484h-41.812l-5.809,19.674h-37.603l44.795-119.184h40.172l44.786,119.184h-38.566L337.779,820.484z
        	M330.14,794.712l-13.155-42.845l-13.018,42.845H330.14z"/>
    </svg>

    <svg class="pro" id="eye">
        <path d="M16,0C7.164,0,0,11.844,0,11.844S7.164,24,16,24s16-12.156,16-12.156S24.836,0,16,0z M16,20
                c-4.418,0-8-3.582-8-8s3.582-8,8-8s8,3.582,8,8S20.418,20,16,20z"/>
    </svg>

    <svg class="pro" id="layers_x5F_alt">
        <polygon points="0,24 16,28 32,24 32,28 16,32 0,28 "/>
        <polygon points="0,16 16,20 32,16 32,20 16,24 0,20 "/>
        <polygon points="0,8 16,12 32,8 32,12 16,16 0,12 "/>
        <polygon points="0,0 16,4 32,0 32,4 16,8 0,4 "/>
    </svg>

    <svg class="pro" id="layers">
        <polygon points="0,20 16,24 32,20 32,24 16,28 0,24 "/>
        <polygon points="0,12 16,16 32,12 32,16 16,20 0,16 "/>
        <polygon points="0,4 16,0 32,4 32,8 16,12 0,8 "/>
    </svg>

    <svg class="pro" id="magnifying_x5F_glass">
        <path d="M11.336,19.738c-1.855,1.852-4.414,4.418-5.688,5.688c0.43,0.43,0.488,0.484,0.922,0.922
                c1.27-1.273,3.832-3.836,5.684-5.688C11.934,20.371,11.629,20.066,11.336,19.738z"/>
        <path d="M20.133,0C13.594,0,8.273,5.32,8.273,11.863c0,1.566,0.32,3.051,0.871,4.418L0,25.426L6.57,32
                l9.148-9.152c1.367,0.555,2.852,0.875,4.414,0.875c6.543,0,11.867-5.32,11.867-11.859C32,5.32,26.676,0,20.133,0z M20.133,19.727
                c-4.332,0-7.863-3.531-7.863-7.863c0-4.336,3.531-7.867,7.863-7.867c4.34,0,7.871,3.531,7.871,7.867
                C28.004,16.195,24.473,19.727,20.133,19.727z"/>
    </svg>

    <svg class="pro" id="map_x5F_pin_x5F_stroke">
        <path d="M9.996,4c1.605,0,3.113,0.625,4.246,1.76C15.375,6.891,16,8.398,16,10s-0.625,3.109-1.73,4.213
                c-0.168,0.166-2.238,2.225-4.273,5.441c-2.02-3.211-4.082-5.262-4.238-5.414C4.625,13.109,4,11.602,4,10s0.625-3.109,1.758-4.242
                S8.314,4,9.996,4 M9.996,0C7.441,0,4.883,0.977,2.93,2.93c-3.906,3.904-3.906,10.236,0,14.141c0,0,7.066,6.93,7.066,14.93
                c0-8,7.074-14.93,7.074-14.93c3.906-3.904,3.906-10.236,0-14.141C15.117,0.977,12.559,0,9.996,0L9.996,0z"/>
        <path d="M12,10c0,1.105-0.895,2-2.004,2C8.811,12,8,11.105,8,10s0.811-2,1.996-2C11.105,8,12,8.895,12,10z"
                />
    </svg>

    <svg class="pro" id="move">
        <polygon points="18,20 18,26 22,26 16,32 10,26 14,26 14,20 "/>
        <polygon points="14,12 14,6 10,6 16,0 22,6 18,6 18,12 "/>
        <polygon points="12,18 6,18 6,22 0,16 6,10 6,14 12,14 "/>
        <polygon points="20,14 26,14 26,10 32,16 26,22 26,18 20,18 "/>
    </svg>

    <svg class="pro" id="question_x5F_mark">
        <path d="M9.6,30c0,1.102-0.895,2-2,2s-2-0.898-2-2c0-1.109,0.895-2,2-2S9.6,28.891,9.6,30z"/>
        <path d="M7.676,25.977c-1.336,0-2.59-0.523-3.535-1.469c-0.945-1.105-1.465-2.359-1.465-3.695
                s0.52-2.59,1.465-3.371l6.688-6.688C11.584,9.996,12,8.992,12,7.926c0-1.07-0.416-2.074-1.172-2.828
                c-1.559-1.559-4.096-1.562-5.654,0C4.416,5.852,4,6.855,4,7.926H0c0-2.137,0.834-4.148,2.348-5.66
                c3.02-3.023,8.285-3.02,11.309,0.004C15.168,3.777,16,5.785,16,7.926c0,2.137-0.832,4.145-2.344,5.656l-6.688,6.523
                c-0.389,0.391-0.389,1.023,0,1.414c0.391,0.391,1.023,0.391,1.414,0c0.254-0.258,0.293-0.555,0.293-0.711h4
                c0,1.336-0.52,2.594-1.465,3.699C10.266,25.453,9.012,25.977,7.676,25.977L7.676,25.977z"/>
    </svg>

    <svg class="pro" id="reload_x5F_alt">
        <path d="M20,16c0,4.414-3.586,8-8,8s-8-3.586-8-8s3.586-8,8-8l4.023,0.043v3.977L22.035,6l-6.012-6v4H12
                C5.375,4,0,9.375,0,16s5.375,12,12,12s12-5.375,12-12H20z"/>
    </svg>

    <svg class="pro" id="sun_dotted">
        <path d="M16,8c-4.422,0-8,3.582-8,8s3.578,8,8,8c4.414,0,8-3.582,8-8S20.414,8,16,8L16,8z"/>
        <path d="M18,2c0,1.105-0.898,2-2,2c-1.109,0-2-0.895-2-2s0.891-2,2-2C17.102,0,18,0.895,18,2z"/>
        <path d="M2,13.998c1.102,0,2,0.895,2,2c0,1.107-0.898,2-2,2c-1.109,0-2-0.893-2-2C0,14.893,0.891,13.998,2,13.998z"/>
        <path d="M14,30c0-1.109,0.891-2,2-2c1.109,0,2,0.891,2,2c0,1.105-0.891,2-2,2C14.891,32,14,31.105,14,30z"/>
        <path d="M24.594,27.414c-0.781-0.781-0.781-2.047,0-2.828s2.047-0.781,2.828,0c0.789,0.781,0.789,2.047,0,2.828
        C26.641,28.195,25.375,28.195,24.594,27.414z"/>
        <path d="M29.996,17.998C28.898,17.998,28,17.104,28,16c0-1.109,0.898-2,2.008-2c1.098,0,2,0.893,1.988,1.998
        C32.008,17.105,31.105,18,29.996,17.998z"/>
        <path d="M27.422,7.416c-0.781,0.779-2.047,0.779-2.828,0c-0.781-0.785-0.781-2.047,0-2.83
        c0.781-0.779,2.047-0.781,2.828,0.002C28.211,5.369,28.211,6.637,27.422,7.416z"/>
        <path d="M8,6c0,1.105-0.898,2-2,2C4.891,8,4,7.105,4,6s0.891-2,2-2C7.102,4,8,4.895,8,6z"/>
        <path d="M8,26c0,1.105-0.898,2-2,2c-1.109,0-2-0.895-2-2s0.891-2,2-2C7.102,24,8,24.895,8,26z"/>
    </svg>
    
    <svg class="pro" id="rays1">
    	<polygon points="73.711,61.833 79.545,162.333 66.544,162.333 "/>
	<polygon points="73.666,62.333 67.833,-38.168 80.833,-38.168 "/>	
	<polygon points="73.438,62.06 173.939,56.227 173.939,69.227 "/>
	<polygon points="73.938,62.105 -26.562,67.938 -26.562,54.938 "/>
	<polygon points="73.892,61.861 6.953,137.051 -2.241,127.857 "/>
	<polygon points="73.506,62.183 140.446,-13.007 149.639,-3.814 "/>
	<polygon points="73.538,61.829 148.729,128.77 139.536,137.962 "/>
	<polygon points="73.859,62.215 -1.33,-4.725 7.863,-13.917 "/>
	<polygon points="73.526,62.22 164.145,18.37 169.119,30.38 "/>
	<polygon points="74.006,62.069 -16.612,105.918 -21.587,93.907 "/>
	<polygon points="73.841,62.385 29.992,-28.233 42.002,-33.209 "/>
	<polygon points="73.692,61.905 117.54,152.522 105.531,157.497 "/>
	<polygon points="73.484,62.041 168.566,95.111 163.592,107.123 "/>
	<polygon points="73.93,62.274 -21.155,29.204 -16.18,17.193 "/>
	<polygon points="73.59,62.381 106.661,-32.703 118.671,-27.728 "/>
	<polygon points="73.823,61.937 40.753,157.019 28.743,152.043 "/>
    </svg>
    
    <svg class="pro" id="rays2">
    	<polygon points="73.711,61.833 79.545,162.333 66.544,162.333 "/>
	<polygon points="73.666,62.333 67.833,-38.168 80.833,-38.168 "/>
	<polygon points="73.438,62.06 173.939,56.227 173.939,69.227 "/>
	<polygon points="73.938,62.105 -26.562,67.938 -26.562,54.938 "/>
	<polygon points="73.892,61.861 6.953,137.051 -2.241,127.857 "/>
	<polygon points="73.506,62.183 140.446,-13.007 149.639,-3.814 "/>
	<polygon points="73.538,61.829 148.729,128.77 139.536,137.962 "/>
	<polygon points="73.859,62.215 -1.33,-4.725 7.863,-13.917 "/>
	<polygon points="73.526,62.22 164.145,18.37 169.119,30.38 "/>
	<polygon points="74.006,62.069 -16.612,105.918 -21.587,93.907 "/>
	<polygon points="73.841,62.385 29.992,-28.233 42.002,-33.209 "/>
	<polygon points="73.692,61.905 117.54,152.522 105.531,157.497 "/>
	<polygon points="73.484,62.041 168.566,95.111 163.592,107.123 "/>
	<polygon points="73.93,62.274 -21.155,29.204 -16.18,17.193 "/>
	<polygon points="73.59,62.381 106.661,-32.703 118.671,-27.728 "/>
	<polygon points="73.823,61.937 40.753,157.019 28.743,152.043 "/>
	<polygon points="73.665,61.819 98.993,159.25 86.242,161.786 "/>
	<polygon points="73.718,62.318 48.391,-35.113 61.141,-37.649 "/>
	<polygon points="73.442,62.095 170.874,36.767 173.41,49.517 "/>
	<polygon points="73.941,62.042 -23.49,87.37 -26.026,74.62 "/>
	<polygon points="73.848,61.811 22.864,148.616 12.053,141.393 "/>
	<polygon points="73.532,62.202 124.518,-24.602 135.326,-17.379 "/>
	<polygon points="73.494,61.849 160.3,112.835 153.077,123.644 "/>
	<polygon points="73.885,62.165 -12.919,11.18 -5.696,0.371 "/>
	<polygon points="73.559,62.235 153.882,1.549 161.104,12.358 "/>
	<polygon points="74,61.993 -6.322,122.679 -13.545,111.868 "/>
	<polygon points="73.9,62.335 13.215,-17.987 24.023,-25.211 "/>
	<polygon points="73.66,61.894 134.345,142.215 123.537,149.437 "/>
	<polygon points="73.483,62.067 173.19,75.953 170.654,88.705 "/>
	<polygon points="73.965,62.209 -25.744,48.325 -23.208,35.574 "/>
	<polygon points="73.653,62.38 87.539,-37.329 100.288,-34.792 "/>
	<polygon points="73.795,61.899 59.91,161.605 47.16,159.069 "/>
    </svg>
</svg>
