    <svg title="halloween special" backgroundColor="#e1600e" id="tree">
        <path class="path" d="M808.9701,1131.723 C803.4751,1140.0901 804.09875,1130.8239 813.2573,1144.7103 C822.41614,1158.5969 846.37524,1189.2932 854.7634,1201.1559 C863.15173,1213.0184 856.5414,1200.8279 855.1981,1204.0236 C853.855,1207.2191 852.4852,1208.5787 848.0475,1217.1339 C843.60974,1225.6892 833.3816,1239.0458 833.0095,1246.7999 C832.6376,1254.5542 833.99976,1248.6544 846.1875,1255.905 C858.375,1263.1556 873.71936,1271.5748 893.948,1283.0529 C914.17664,1294.5306 933.9127,1304.6272 947.3303,1313.2948 C960.7479,1321.9626 954.57336,1319.68 961.03613,1326.3915 C967.4989,1333.103 973.0349,1341.2506 979.6438,1346.8518 C986.2528,1352.4532 990.718,1352.5293 994.08105,1354.3981 C997.4442,1356.2668 995.38525,1354.9423 996.4595,1356.1958 C997.5337,1357.4492 997.8544,1357.8127 999.4525,1360.6652 C1001.05054,1363.5176 1003.15564,1366.873 1004.4497,1370.458 C1005.744,1374.0427 1006.1699,1376.863 1005.9232,1378.5896 C1005.6765,1380.316 1005.94934,1379.268 1003.21643,1379.0903 C1000.4835,1378.913 996.88904,1379.2437 992.2589,1377.7019 C987.6288,1376.16 986.999,1374.5131 980.06555,1371.3815 C973.1321,1368.2501 969.2921,1367.0786 957.5913,1362.0447 C945.8905,1357.0109 931.63464,1351.8534 921.56177,1346.2124 C911.4889,1340.5712 918.3689,1341.1908 907.2272,1333.8394 C896.08545,1326.488 884.14136,1318.9838 865.8533,1309.4556 C847.5652,1299.9272 831.068,1298.2148 815.7865,1286.1984 C800.50525,1274.182 804.3269,1261.2981 789.44653,1249.3738 C774.5659,1237.4495 755.416,1231.6458 741.38403,1226.577 C727.3518,1221.508 723.8429,1224.365 719.2859,1224.0293 C714.729,1223.6938 719.50476,1221.4152 718.5989,1224.8992 C717.693,1228.3833 715.9717,1235.8663 714.7565,1241.4498 C713.5414,1247.0336 713.254,1248.2821 712.52344,1252.8174 C711.79285,1257.3525 709.1217,1260.116 711.1033,1264.1261 C713.08484,1268.1362 716.8613,1269.1066 722.4315,1272.8678 C728.0017,1276.6292 733.9552,1279.8274 738.95435,1282.9321 C743.95337,1286.0367 742.3678,1284.0483 747.4269,1288.3912 C752.4857,1292.7344 758.4852,1297.2711 764.24915,1304.6475 C770.01306,1312.0237 773.61707,1319.7053 776.24634,1325.2727 C778.8755,1330.8402 777.19055,1330.6182 777.39514,1332.4847 C777.59985,1334.3511 778.45703,1334.2019 777.26953,1334.6047 C776.0819,1335.0076 774.468,1336.0566 771.4575,1334.4987 C768.4468,1332.9407 768.62366,1331.1849 762.21643,1326.815 C755.80896,1322.445 749.22876,1314.3156 739.4208,1312.6489 C729.6127,1310.9823 724.42957,1316.402 713.1764,1318.4816 C701.92334,1320.5612 693.4701,1326.8405 683.1553,1323.0475 C672.84033,1319.2543 668.9922,1309.1122 661.60205,1299.5162 C654.2118,1289.9202 646.2042,1275.0676 646.2042,1275.0676 C646.2042,1275.0676 649.8451,1282.5928 650.364,1278.2229 C650.8827,1273.8531 650.3939,1266.4534 648.79834,1253.2183 C647.20276,1239.9832 651.3695,1226.4567 642.3862,1212.0471 C633.40295,1197.6373 617.4469,1191.4999 603.8821,1181.1698 C590.31726,1170.8395 586.2916,1165.2239 574.56165,1160.3962 C562.8319,1155.5687 568.7346,1156.5156 545.2329,1157.0317 C521.7312,1157.5481 457.0532,1162.9781 457.0532,1162.9781 C457.0532,1162.9781 482.0875,1161.7302 483.90274,1159.844 C485.71793,1157.9579 484.82687,1154.9023 466.12924,1153.5476 C447.43167,1152.1926 417.91006,1151.9275 390.41476,1153.0696 C362.9194,1154.2117 341.96725,1157.8789 328.6528,1159.258 C315.33847,1160.6371 325.28403,1159.4279 323.843,1159.9652 C322.40182,1160.5024 323.44357,1160.1577 321.44724,1161.9448 C319.45084,1163.7318 325.2726,1159.7007 313.8611,1168.9006 C302.44955,1178.1007 286.12906,1193.5177 264.3895,1207.9448 C242.64987,1222.3721 218.99301,1233.8347 205.16342,1241.0366 C191.33377,1248.2385 197.48563,1242.0911 195.24136,1243.9546 C192.9971,1245.8181 195.56174,1247.7755 193.94229,1250.3541 C192.32278,1252.9327 189.38101,1255.5177 187.14383,1256.8478 C184.90659,1258.1777 183.50845,1257.8676 182.75632,1257.0046 C182.00418,1256.1418 181.54489,1256.1384 183.38303,1252.5332 C185.22122,1248.9282 182.2239,1250.7053 191.94705,1238.9792 C201.67014,1227.2532 216.17099,1211.6573 231.99887,1193.9031 C247.82669,1176.1489 261.96408,1161.1592 271.0864,1150.2083 C280.20877,1139.2573 275.60587,1139.5764 277.6102,1139.1487 C279.6146,1138.7211 281.98666,1146.9419 281.1083,1148.0702 C280.23,1149.1986 275.29904,1147.6869 273.2189,1144.7908 C271.1387,1141.8944 269.69528,1137.9233 270.70786,1133.5889 C271.72043,1129.2544 268.47397,1128.8076 278.28146,1123.1183 C288.0889,1117.4291 297.07138,1112.0573 319.74515,1105.1427 C342.4189,1098.2281 366.27945,1095.5353 391.65036,1088.5454 C417.02133,1081.5554 432.34476,1076.1232 446.5997,1070.1931 C460.85452,1064.2631 457.42075,1063.2479 462.92477,1058.8953 C468.4288,1054.5427 470.77798,1052.4751 474.11972,1048.4302 C477.4614,1044.3851 478.4064,1041.0798 479.6334,1038.6703 C480.86026,1036.2607 480.21347,1033.3916 480.2543,1036.3827 C480.295,1039.374 480.6362,1046.1171 479.8373,1053.6265 C479.03848,1061.1356 474.2745,1071.6838 476.25998,1073.9293 C478.24545,1076.1748 478.51517,1074.3317 489.76492,1064.8535 C501.01474,1055.3751 519.0122,1039.2443 532.50903,1026.538 C546.00586,1013.83167 551.6273,1008.1354 557.249,1001.322 C562.87085,994.50854 559.9385,994.6189 560.6178,992.4708 C561.29724,990.32263 560.64026,990.95557 560.64575,990.58154 C560.65137,990.2074 560.6455,990.6002 560.6455,990.6002 C560.6455,990.6002 571.1815,987.7656 571.973,982.8478 C572.7645,977.92993 571.97314,978.3749 564.6029,966.011 C557.23267,953.647 543.07666,932.96454 535.1223,921.02795 C527.16785,909.0913 531.7821,911.038 524.83093,906.3279 C517.87964,901.6176 507.42825,900.8573 500.36612,897.4767 C493.30392,894.09607 493.0049,892.6777 489.5201,889.42456 C486.0352,886.17145 484.8572,884.47186 482.94162,881.2109 C481.02603,877.94995 472.80234,873.716 479.94205,873.11975 C487.0817,872.52344 506.59024,876.9096 518.6399,878.22974 C530.6897,879.5498 535.45984,879.69653 540.1907,879.72034 C544.9215,879.74414 541.4946,882.17487 542.29395,878.3489 C543.09326,874.5228 544.4103,869.1095 544.1875,860.5903 C543.9647,852.071 542.5563,842.7753 541.1802,835.7528 C539.80396,828.7303 541.0591,828.54645 537.30664,825.4777 C533.5542,822.40906 533.214,822.1957 522.4182,820.4092 C511.6224,818.6226 495.2637,816.1818 483.32767,816.54504 C471.3917,816.9084 467.94632,820.48065 462.738,822.22546 C457.52975,823.9702 457.20352,825.78204 457.2863,825.2692 C457.36917,824.7564 457.60287,824.4416 463.1523,819.66125 C468.70175,814.8809 475.5762,803.45276 485.03336,801.36743 C494.4905,799.2821 503.64194,807.9302 510.43796,809.23444 C517.234,810.53864 516.3755,808.5001 519.0134,807.8883 C521.6511,807.2766 521.97864,810.1604 523.6273,806.17554 C525.276,802.1907 525.6299,793.3737 527.2567,787.96405 C528.8834,782.5544 530.0178,781.7884 531.7612,779.12744 C533.50464,776.4664 535.13574,774.5999 535.9739,774.65894 C536.812,774.718 535.2549,776.06976 535.952,779.42255 C536.6492,782.7753 536.5929,785.4076 539.4597,791.4227 C542.3268,797.4378 545.6979,803.5736 550.2866,809.4982 C554.8755,815.42285 559.5763,816.6376 562.40405,821.0457 C565.2318,825.45386 563.48206,824.02997 564.42566,831.5388 C565.36926,839.04767 565.57556,848.23334 567.1222,858.58966 C568.6688,868.94604 568.9447,876.0824 572.15857,883.3205 C575.37256,890.5586 576.8772,890.1197 583.1919,894.7803 C589.5066,899.4409 598.4575,903.6769 603.7322,906.6234 C609.0066,909.56995 608.1676,909.0702 609.56445,909.51306 C610.9613,909.956 609.7086,912.14594 610.7162,908.83813 C611.7239,905.53033 612.9514,904.88824 614.60266,892.974 C616.254,881.0598 617.3845,867.39417 618.9729,849.267 C620.5613,831.1399 621.7567,815.17664 622.5447,802.33844 C623.3324,789.50024 622.8113,790.3775 622.9121,785.0759 C623.01294,779.77435 621.2623,780.51337 623.04895,775.8305 C624.8356,771.14764 624.4241,766.3257 631.84534,761.66174 C639.2666,756.99786 651.0132,755.2233 660.155,752.5109 C669.2969,749.7986 674.32007,750.90393 677.55457,748.0997 C680.78906,745.2954 681.3047,750.0373 676.3273,738.4898 C671.34985,726.9424 659.58325,707.7509 652.6675,690.3627 C645.75183,672.9745 643.5404,660.4444 641.7488,651.54865 C639.9569,642.65283 643.70874,645.8837 643.70874,645.8837 C643.70874,645.8837 652.9142,643.1138 653.5111,642.9062 C654.10803,642.6986 656.4459,641.338 646.693,644.84595 C636.9402,648.3538 615.2921,656.73694 604.7468,660.4458 C594.20166,664.15454 599.8435,660.3126 593.9667,663.3899 C588.08984,666.46716 581.3402,672.46497 575.36304,675.8319 C569.38586,679.1989 566.8849,679.3544 564.08093,680.22485 C561.277,681.09534 563.4054,679.7425 561.3434,680.1844 C559.2815,680.6262 558.5366,677.1584 553.7711,682.4342 C549.0055,687.7099 535.82434,709.9847 537.5155,706.5631 C539.20667,703.1415 553.60205,676.0127 562.22705,665.32623 C570.8519,654.6397 576.2186,656.4245 580.64014,653.13055 C585.06165,649.83655 582.90027,648.76587 584.3346,648.8563 C585.7689,648.94684 588.7272,654.7458 587.8115,653.5829 C586.896,652.41986 582.8334,645.23346 579.7561,643.04144 C576.67896,640.8494 578.1714,638.54193 572.4258,642.6227 C566.6802,646.7034 570.55237,651.7259 551.0277,663.4452 C531.5032,675.1644 496.67038,687.7745 474.803,701.219 C452.93558,714.66345 448.6851,724.227 441.69077,730.66754 C434.69638,737.1081 440.20297,732.871 439.8311,733.42175 C439.4592,733.97253 439.9103,733.34485 439.83115,733.42175 C439.75198,733.49866 439.4351,733.8062 439.4351,733.8062 C439.4351,733.8062 455.98074,738.3601 456.26614,737.967 C456.5516,737.5739 451.27463,735.30304 440.86234,731.84094 C430.44998,728.3788 412.5773,722.8591 404.2045,720.6564 C395.8317,718.45374 405.0043,718.57306 398.99826,720.8275 C392.99228,723.0821 380.04935,729.5894 374.17465,731.9292 C368.29996,734.26886 369.6246,732.5262 369.6246,732.5262 C369.6246,732.5262 374.82132,739.2321 373.4413,739.73315 C372.06137,740.23413 377.44437,749.64197 362.72476,735.03143 C348.00516,720.4209 314.43863,682.88525 299.8436,666.6806 C285.24844,650.4759 296.12448,655.2908 289.74936,654.00793 C283.37418,652.7252 283.6921,654.5438 267.96774,660.2666 C252.24332,665.9893 223.64743,676.1674 211.12717,682.6216 C198.6069,689.0757 205.47763,685.42303 205.36618,692.53723 C205.25473,699.6514 208.53983,713.11163 210.56992,718.1926 C212.6,723.27374 210.43906,719.2385 215.5167,717.94257 C220.59439,716.6466 231.65244,713.8844 235.9581,711.713 C240.26376,709.54144 236.75156,709.4821 237.04465,707.0851 C237.33768,704.6881 237.11984,701.33295 237.42331,699.7279 C237.7269,698.1229 237.7308,698.5026 238.56223,699.06 C239.39352,699.6173 240.48428,697.25635 241.57999,702.5146 C242.67563,707.7728 243.47311,719.5318 244.04044,725.3509 C244.60782,731.1699 245.68234,729.653 244.41678,731.6101 C243.15115,733.56726 246.3157,733.3755 237.71231,735.13654 C229.10892,736.8976 210.99655,741.8692 201.39957,740.4154 C191.80258,738.96155 193.45944,738.5088 189.72733,727.86774 C185.99527,717.2267 184.27518,699.5538 182.7388,687.21045 C181.20242,674.8671 176.76242,673.58496 182.04526,666.15106 C187.32803,658.71716 202.68637,653.6875 209.15305,650.04095 C215.61972,646.3944 214.37863,647.9184 214.37863,647.9184 C214.37863,647.9184 232.74063,641.53674 232.77774,639.6969 C232.81479,637.8571 233.74118,637.0457 214.56412,638.7194 C195.38705,640.3931 155.14835,646.02014 136.89273,648.06555 C118.63718,650.11084 127.63669,651.29974 123.28592,648.9463 C118.93503,646.5928 119.9155,646.3363 115.13846,636.29803 C110.36142,626.25977 103.714386,607.48773 99.40109,598.7547 C95.08774,590.02167 100.7623,593.5448 93.571625,592.6331 C86.38101,591.72144 73.9603,593.709 63.447998,594.1963 C52.93567,594.68353 45.979828,594.51556 41.010223,595.0693 C36.04062,595.623 41.03177,592.8799 38.599792,596.96484 C36.167816,601.04974 31.47055,610.8197 28.850586,615.494 C26.230652,620.1684 25.015503,617.8297 25.500458,620.3366 C25.985443,622.84357 26.242065,621.7319 31.275574,628.0286 C36.309082,634.3254 46.056335,646.15784 50.667877,651.8205 C55.27951,657.48315 56.323517,657.2303 54.33307,656.3418 C52.34262,655.4533 50.414063,654.1523 40.715454,647.3779 C31.016968,640.6036 13.983582,628.25916 5.8404236,622.47003 C-2.3025818,616.68085 -1.2368469,623.0585 0.0,618.4321 C1.2368469,613.8058 6.5376587,606.8323 12.02417,599.33844 C17.510681,591.84467 17.072113,586.59985 27.43274,580.96326 C37.793335,575.3267 47.417297,574.1626 63.826965,571.1555 C80.236664,568.1485 99.453705,567.46783 109.48074,565.9281 C119.507965,564.38837 112.566376,565.4752 113.962555,563.45685 C115.35855,561.4385 115.95291,557.9348 116.46103,555.8362 C116.96927,553.73755 116.45242,553.2828 116.50357,552.96375 C116.55478,552.6448 113.72739,550.1221 116.71701,554.2412 C119.70651,558.3604 126.97592,563.19104 131.45108,573.5597 C135.92618,583.9284 135.05148,598.10394 139.09293,606.0846 C143.13425,614.0652 136.72598,613.2812 151.6578,613.4629 C166.58969,613.64453 188.12979,608.80585 213.75229,606.9928 C239.37473,605.1797 261.71017,605.17664 279.76993,604.3974 C297.82974,603.61816 294.74356,598.80725 304.0513,603.0968 C313.35904,607.38635 314.47128,612.2864 326.3088,625.8452 C338.14645,639.40393 350.90005,658.03656 363.23923,670.8907 C375.5784,683.74493 388.0046,690.1163 388.0046,690.1163 C388.0046,690.1163 382.57803,691.85925 393.2208,687.5516 C403.8635,683.24384 414.73416,684.55945 441.21823,668.5777 C467.7023,652.596 508.59323,620.89404 525.6411,607.6428 C542.68896,594.3916 530.6693,611.8363 526.4575,602.32153 C522.2457,592.8068 516.07104,579.634 504.58224,560.0689 C493.09348,540.50397 479.46957,520.5695 469.01352,504.49652 C458.55734,488.42358 458.99423,486.07428 452.30142,479.70404 C445.60867,473.3338 454.33823,472.03888 435.54947,472.6454 C416.76083,473.25195 379.324,480.47272 358.3582,482.73663 C337.39224,485.0005 330.71994,483.96484 330.71994,483.96484 C330.71994,483.96484 332.06216,479.378 330.822,479.89838 C329.58182,480.41882 326.72794,478.92963 324.51932,486.5669 C322.3107,494.20416 320.12033,510.11707 319.77908,518.0846 C319.4379,526.0521 320.7728,524.13385 322.8135,526.4046 C324.85434,528.6753 325.5289,529.2445 329.98294,529.4383 C334.43698,529.63214 342.38535,527.56946 345.0837,527.37354 C347.78207,527.1776 348.0414,526.90814 343.47464,528.4586 C338.908,530.0091 328.65207,533.8642 322.25027,535.126 C315.84854,536.38776 317.6389,539.2124 311.46555,534.7675 C305.29227,530.3226 298.3447,519.76526 291.3837,512.9013 C284.42282,506.03735 278.19516,508.2378 276.66086,500.44763 C275.12662,492.65753 280.61917,481.27026 283.7123,473.9508 C286.80545,466.6314 287.54916,465.7835 292.1265,463.8506 C296.70383,461.91772 296.4924,464.22217 306.5991,464.28638 C316.70584,464.3506 334.49606,464.4491 342.66013,464.1715 C350.82413,463.89404 346.01535,464.2798 347.4194,462.89868 C348.8234,461.51764 349.2261,460.30408 349.68045,457.2661 C350.13467,454.22815 351.51297,450.5559 349.69077,447.70886 C347.8685,444.86194 346.4966,445.10565 340.56918,443.03113 C334.6417,440.95667 327.6696,442.39313 320.05362,437.33636 C312.43765,432.27966 307.18582,423.7705 302.4896,417.74738 C297.79343,411.72427 302.58932,411.63184 296.57242,407.22083 C290.55545,402.8098 286.7946,402.6416 272.40475,395.69226 C258.01498,388.74292 242.25797,381.67615 224.62338,372.47406 C206.98886,363.272 193.01187,354.74753 184.2319,349.68195 C175.452,344.61633 180.72348,347.14606 180.72348,347.14606 C180.72348,347.14606 186.06699,343.3156 185.23654,339.40286 C184.40604,335.4901 188.15701,345.8109 176.57101,327.58224 C164.98508,309.35358 137.96591,265.0643 127.30649,248.25974 C116.647,231.45508 124.080536,244.4993 123.27396,243.55917 C122.4675,242.61908 123.55081,243.5633 123.27396,243.55917 C122.99722,243.55508 126.042694,243.24933 121.8898,243.5387 C117.73691,243.82803 112.20364,244.78857 102.509735,245.00586 C92.815765,245.22305 79.669586,244.64606 73.42038,244.62494 C67.17111,244.60376 71.91336,241.4383 71.2637,244.90018 C70.614044,248.36206 70.6315,254.58237 70.17209,261.93427 C69.7128,269.2862 69.196625,277.53687 68.9671,281.65985 C68.73743,285.7828 67.08185,282.33328 69.02402,282.54907 C70.96622,282.76483 74.8107,282.73825 78.67813,282.73868 C82.54562,282.73907 86.269745,282.98618 88.36148,282.55106 C90.453094,282.11594 89.08865,282.42328 89.13681,280.56305 C89.18509,278.70282 88.741425,275.7073 88.60263,273.2499 C88.46365,270.7925 88.087494,268.99377 88.442535,268.27606 C88.79764,267.55835 88.25589,265.72552 90.3779,269.66135 C92.49991,273.5972 96.90866,282.45248 99.05252,287.95523 C101.19638,293.458 101.471466,295.17975 101.09726,297.17505 C100.72305,299.17032 102.72684,297.77292 97.18161,297.93176 C91.636444,298.09067 81.10605,298.66196 73.37131,297.96954 C65.636566,297.27716 61.601685,296.01154 58.508087,294.46973 C55.41452,292.92792 58.17505,298.4428 57.903046,290.26056 C57.631042,282.0783 57.18637,266.5075 57.14807,253.5585 C57.10977,240.6095 54.108185,231.87338 57.71161,225.51556 C61.315186,219.15778 63.8786,223.844 75.16556,221.76953 C86.45267,219.69507 105.33676,217.11496 114.14682,215.14337 C122.95688,213.17175 117.89517,213.50421 119.21542,211.91147 C120.53555,210.31876 120.19986,208.50647 120.74771,207.1796 C121.295685,205.85272 120.65762,204.92776 121.95474,205.27704 C123.25186,205.62634 121.35678,202.9607 127.23331,208.926 C133.10977,214.89133 137.41891,217.40149 151.33755,235.10358 C165.25613,252.8056 181.26328,278.98718 196.82669,297.43625 C212.39017,315.8853 221.81723,320.7189 229.15494,327.34875 C236.49258,333.97858 224.45096,328.20813 233.51498,330.5854 C242.57895,332.96265 259.31168,338.0386 274.4747,339.23495 C289.6378,340.43124 302.28476,337.04102 309.33,336.5669 C316.37515,336.09283 309.7006,336.86444 309.7006,336.86444 C309.7006,336.86444 311.44388,356.0063 314.27267,352.96185 C317.1014,349.91742 314.4894,346.32434 323.8447,321.64227 C333.19992,296.9602 353.41635,248.92395 361.04874,229.55142 C368.68112,210.1789 355.9235,223.87146 362.00632,224.77963 C368.08914,225.68774 376.24265,228.99084 391.46262,234.0921 C406.68265,239.19336 428.7399,247.02429 438.10635,250.28598 C447.47287,253.5477 438.3151,249.50742 438.2952,250.40057 C438.2753,251.29376 438.5648,247.05197 438.0071,254.75186 C437.44943,262.45178 436.51608,278.5813 435.50693,288.9001 C434.4977,299.21887 433.67886,302.7548 432.96127,306.34576 C432.24374,309.93674 432.64517,306.78488 431.9191,306.85483 C431.19315,306.9248 434.87924,307.1439 429.3312,306.69568 C423.7831,306.24747 412.12015,305.80356 404.179,304.61383 C396.23776,303.42416 389.6044,302.7921 389.62534,300.74716 C389.64627,298.70224 399.27542,296.92392 404.28372,294.38922 C409.29214,291.85452 414.54703,293.6209 414.66733,288.07382 C414.78763,282.52673 410.12735,272.53156 404.88547,266.65375 C399.64352,260.77588 395.22177,260.26114 388.4576,258.68472 C381.69345,257.10828 374.74203,252.36053 371.06467,258.7717 C367.3873,265.18286 369.40152,269.05872 370.0707,290.74066 C370.73996,312.4226 373.29233,348.32074 374.41074,367.18164 C375.52908,386.0425 374.08066,380.3051 375.66275,385.045 C377.24478,389.7849 372.77475,385.75916 382.32108,390.88104 C391.86746,396.00296 412.20145,405.78815 423.39444,410.65454 C434.58737,415.52094 434.50015,414.92917 438.28598,415.2132 C442.07175,415.4972 441.27884,414.02982 442.32346,412.07452 C443.36813,410.11926 441.80258,410.13718 443.5092,405.4369 C445.21573,400.73657 451.37186,401.36206 450.8561,388.57294 C450.34036,375.7838 440.7335,352.45386 440.9304,341.49124 C441.12735,330.5286 447.0233,335.66125 451.8406,333.7597 C456.65787,331.85822 457.2701,332.45648 465.0168,331.98358 C472.76346,331.5107 485.09793,329.44717 490.57413,331.3954 C496.05032,333.34357 490.35678,326.357 492.39798,341.72455 C494.43912,357.09216 494.54758,385.60226 500.77982,408.23328 C507.01212,430.86426 514.44507,438.69147 523.55945,454.8794 C532.6737,471.06726 541.6433,481.64154 546.35156,489.1729 C551.0597,496.70435 546.2827,490.46118 547.10046,492.5365 C547.91797,494.61182 549.5962,497.76318 550.4397,499.5495 C551.2832,501.33582 551.3181,501.46808 551.3181,501.46808 C551.3181,501.46808 564.35754,528.22974 567.0685,530.43085 C569.77954,532.6319 561.13794,521.8091 564.87305,512.47345 C568.60815,503.1377 569.16833,491.50775 585.744,483.7525 C602.31946,475.99725 634.6748,475.8271 647.75073,473.69714 C660.8264,471.5672 650.4487,473.22156 651.1233,473.10272 C651.79785,472.98383 651.1233,473.10272 651.1233,473.10272 C651.1233,473.10272 651.1249,472.99243 651.1233,473.10272 C651.1216,473.21295 652.78394,479.3557 651.1151,473.65405 C649.44617,467.9524 646.57214,462.8081 642.77905,444.59424 C638.9861,426.3803 633.6404,394.84064 632.14966,382.58456 C630.6592,370.32852 629.34106,372.07086 635.3259,383.31396 C641.31067,394.557 654.32104,423.04376 662.074,438.80005 C669.8269,454.5564 671.66394,456.5155 674.09106,462.09552 C676.51794,467.67554 674.1821,466.00964 674.2092,466.70038 C674.2363,467.39105 675.1438,478.5055 674.2262,465.5489 C673.30884,452.5923 671.45605,419.7505 669.6217,401.91733 C667.78735,384.0841 662.5879,372.15115 665.0547,376.38297 C667.5216,380.61475 677.02954,407.03336 681.95593,423.07642 C686.8822,439.11945 687.39856,464.72723 689.6863,456.59814 C691.9739,448.46906 694.97375,414.8504 693.39417,382.43076 C691.81445,350.0111 685.8369,321.31873 681.78796,294.49982 C677.739,267.68097 664.4364,236.00891 673.14966,248.33633 C681.8629,260.6638 711.6367,315.15076 725.35474,356.13705 C739.0725,397.12332 738.4635,433.76648 741.73926,453.26764 C745.015,472.7688 741.73474,453.56775 741.73364,453.64276 C741.73254,453.71777 741.6604,454.0716 741.73364,453.64276 C741.807,453.214 739.292,458.43274 742.10034,451.4989 C744.9088,444.56494 753.2864,434.31714 755.7755,418.97318 C758.2645,403.62924 755.23376,390.5464 754.54565,374.77917 C753.8573,359.012 747.82825,353.7723 752.3345,340.13715 C756.8407,326.50195 769.26196,318.49854 777.07666,306.6033 C784.8916,294.70807 787.6968,291.6931 791.4087,280.66116 C795.1206,269.62924 794.5842,264.3013 795.6365,251.44357 C796.6887,238.58594 795.17224,231.80823 796.66956,216.3728 C798.167,200.93738 798.9042,190.12173 803.12317,174.26648 C807.3423,158.41118 811.30505,150.39389 817.76526,137.09637 C824.22546,123.79886 828.9098,118.03136 835.42456,107.77893 C841.93933,97.52652 846.141,93.7601 850.3395,85.83426 C854.5382,77.90842 854.9353,75.46977 856.41736,68.149765 C857.89954,60.829742 858.33923,57.046204 857.75037,49.234238 C857.16174,41.42224 857.21094,34.08194 853.47375,29.089874 C849.7367,24.097816 844.10474,23.96904 839.0648,24.273941 C834.0249,24.57885 830.978,26.873001 828.2742,30.614426 C825.57043,34.35585 826.1217,38.47104 825.546,42.98105 C824.9702,47.491043 825.44214,49.99138 825.39514,53.16446 C825.34814,56.337555 825.33655,57.826447 825.31104,58.846542 C825.2855,59.86664 826.0869,61.00998 825.26794,58.264893 C824.44885,55.519806 821.92114,51.2417 821.2156,45.12111 C820.51013,39.00052 818.51416,34.533714 821.74023,27.661934 C824.9663,20.790154 831.36816,15.542885 837.34607,10.762199 C843.324,5.9815216 847.9597,5.2766953 851.6295,3.7585068 C855.29944,2.240326 855.69543,3.1712723 855.69543,3.1712723 C855.69543,3.1712723 856.8811,-1.2936325 859.1897,0.0 C861.49817,1.2936249 862.8468,0.33473969 867.2383,9.639404 C871.62976,18.944069 878.42004,37.371857 881.147,46.52333 C883.874,55.674805 881.1537,53.475708 880.87354,55.39676 C880.5935,57.317825 879.9552,57.116547 879.7466,56.12863 C879.5381,55.1407 877.4208,52.553665 879.83057,50.457214 C882.2405,48.360764 882.1289,47.45018 891.796,45.646408 C901.46326,43.842667 917.6488,42.207245 928.1665,41.438446 C938.6842,40.669647 939.9961,40.42369 944.38464,41.80246 C948.7732,43.181244 947.33374,40.973694 950.10913,48.33229 C952.88464,55.690887 956.34985,64.72467 958.26196,78.59546 C960.17395,92.46625 960.379,106.06528 959.66956,117.68628 C958.9602,129.30727 960.60706,131.08054 954.71484,136.70044 C948.8225,142.32034 940.77136,143.8617 930.2086,145.7858 C919.6459,147.70992 908.6616,147.04147 901.901,146.32104 C895.1404,145.60063 897.3937,147.16562 896.4054,142.18364 C895.4171,137.20166 896.42017,127.76199 896.95984,121.41113 C897.49963,115.0603 895.11255,112.66507 899.10425,110.42938 C903.09595,108.193695 911.74805,110.3819 916.9182,110.2327 C922.0884,110.083496 923.2418,109.53052 924.9551,109.68332 C926.66846,109.83612 926.0383,110.66681 925.48474,110.996735 C924.93115,111.32666 924.6786,111.125244 922.1874,111.33293 C919.69617,111.54062 916.2986,111.50171 913.0287,112.03525 C909.75867,112.56879 906.89,111.72385 905.8375,114.00064 C904.78503,116.277466 905.91174,120.62778 907.76636,123.41933 C909.621,126.21088 908.9877,127.46231 915.11084,127.958466 C921.23364,128.45459 933.1926,126.651886 938.3816,125.900024 C943.57043,125.14815 939.9691,124.59512 941.0552,124.1991 C942.14124,123.80307 942.99536,124.98346 943.81165,123.919815 C944.6279,122.856155 945.81714,124.72754 945.1362,118.88077 C944.45544,113.034 942.86194,103.08621 940.4075,94.68596 C937.953,86.285706 935.09155,81.304596 932.8639,76.87958 C930.6362,72.454544 935.1604,72.51605 929.2694,72.56088 C923.37854,72.60571 913.0488,75.23537 903.4092,77.10376 C893.76953,78.97217 886.3102,80.155426 881.07104,81.90294 C875.83203,83.65045 879.3428,81.51158 877.2141,85.84131 C875.08545,90.17105 875.2451,85.9041 870.4281,103.551636 C865.6111,121.19919 858.4182,147.62808 853.12915,174.07904 C847.8401,200.52997 845.9287,223.04895 843.98315,235.80634 C842.0375,248.56372 843.04236,233.76886 843.401,237.86581 C843.75977,241.96277 849.7228,247.73318 845.7766,256.2912 C841.83044,264.84924 828.7793,274.9797 823.6703,280.65588 C818.5613,286.3321 823.52234,275.48944 820.2317,284.6723 C816.94116,293.85513 813.01917,313.7744 807.21716,326.57025 C801.41516,339.3661 794.4419,344.15256 791.22156,348.6514 C788.001,353.15027 791.2003,348.9828 791.11536,349.06445 C791.03015,349.1461 790.86,349.06067 790.79626,349.05972 C790.7324,349.05878 790.79626,349.05972 790.79626,349.05972 C790.79626,349.05972 810.8224,347.4421 814.71045,354.77216 C818.59863,362.10217 813.2147,359.99506 810.2368,385.71002 C807.25903,411.42496 802.39844,463.7212 799.82166,483.3471 C797.245,502.97296 798.6001,483.7254 797.3533,483.83954 C796.10645,483.95367 794.8274,482.31433 793.58765,483.91772 C792.3479,485.52106 792.07214,489.3003 791.1549,491.85638 C790.2378,494.4126 789.423,496.4021 789.0023,496.6986 C788.58167,496.99512 789.041,494.0879 789.052,493.339 C789.0631,492.5901 789.05505,493.13367 789.05774,492.9541 C789.0604,492.77454 789.0139,492.4402 789.0653,492.44104 C789.1167,492.4419 787.3152,492.0915 789.3147,492.95837 C791.3142,493.8252 794.3467,495.39563 799.06323,496.77545 C803.77966,498.1552 809.4691,499.07007 812.897,499.85736 C816.3247,500.64465 814.24207,500.12463 816.2024,500.71185 C818.1627,501.29907 821.03345,499.2937 822.6987,502.79333 C824.36414,506.29303 825.8331,501.7342 824.5292,518.21027 C823.2252,534.6863 817.96387,567.54175 816.17896,585.1735 C814.3938,602.8053 815.7025,601.5109 815.604,606.36914 C815.5055,611.2273 815.33484,608.4695 815.6864,609.46466 C816.0381,610.45984 815.53674,608.72296 817.3622,611.34485 C819.18774,613.9667 822.875,618.83405 824.81396,622.5741 C826.7529,626.31415 825.04065,629.1487 827.0569,630.04535 C829.073,630.942 825.85315,629.7569 834.8948,627.0575 C843.9363,624.35803 861.62036,619.18646 872.2648,616.5483 C882.9092,613.91003 884.3856,614.24866 888.11694,613.8663 C891.84814,613.4839 892.20935,602.5345 890.9208,614.6363 C889.6322,626.7381 886.603,654.072 881.6741,674.3752 C876.74524,694.6783 869.76196,707.46313 866.2765,716.15186 C862.791,724.84064 864.6526,717.48566 864.2467,717.81915 C863.8408,718.1526 864.2467,717.8191 864.2467,717.8191 C864.2467,717.8191 882.1509,717.24677 886.3777,727.3897 C890.6044,737.53253 885.6948,745.68976 885.3801,768.53375 C885.0654,791.3776 884.6531,827.7224 884.80444,841.6094 C884.95605,855.4963 883.3928,842.2046 886.1372,837.96826 C888.8817,833.7319 889.14075,832.45807 898.5271,820.4275 C907.9133,808.397 924.8721,787.6102 933.06885,777.8153 C941.2656,768.0204 931.9175,773.83624 939.5111,771.45276 C947.10474,769.0694 961.8683,767.8059 971.037,765.89795 C980.2057,763.9899 975.5144,765.22 985.3546,761.91315 C995.1948,758.60626 1006.5465,754.40765 1020.23804,749.3637 C1033.9296,744.31976 1044.8815,739.9196 1053.8121,736.69366 C1062.7428,733.4678 1059.4982,740.1977 1064.8912,733.23413 C1070.2842,726.2705 1076.0629,711.664 1080.7775,701.8758 C1085.492,692.0876 1085.2388,689.09076 1088.4642,684.2933 C1091.6896,679.4958 1093.9144,681.05475 1096.9045,677.88837 C1099.8945,674.72205 1101.2031,673.8084 1103.4147,668.46155 C1105.6261,663.1146 1108.5416,662.4207 1107.9618,651.15405 C1107.3818,639.8874 1102.5397,623.05524 1100.5149,612.1281 C1098.4901,601.2009 1098.1228,599.8644 1097.8376,596.5182 C1097.5525,593.17206 1098.5161,596.37115 1099.0892,595.3973 C1099.6624,594.42334 1099.9216,593.26245 1100.7034,591.6487 C1101.4851,590.035 1101.6808,588.1774 1102.9978,587.32855 C1104.3148,586.4796 1104.232,583.2469 1107.2885,587.40424 C1110.3448,591.5615 1113.3694,597.709 1118.2802,608.11505 C1123.1908,618.52106 1128.0895,632.43726 1131.8418,639.43463 C1135.5941,646.432 1135.3538,642.6321 1137.0414,643.10175 C1138.729,643.5714 1138.0211,644.1583 1140.28,641.78296 C1142.5391,639.40765 1145.7731,639.1013 1148.3364,631.22504 C1150.8997,623.3488 1151.2526,615.7627 1153.0966,602.40155 C1154.9404,589.0405 1158.7952,574.25464 1157.5562,564.4197 C1156.3173,554.5848 1149.6772,555.69916 1146.9016,553.2268 C1144.1257,550.75446 1148.399,554.9142 1143.6776,552.05786 C1138.956,549.2015 1129.3151,541.7807 1123.2943,538.9448 C1117.2736,536.1088 1112.5842,538.9307 1113.574,537.87823 C1114.5638,536.8258 1119.5038,532.52954 1128.2435,533.68256 C1136.9833,534.8355 1148.3685,541.02277 1157.2726,543.6432 C1166.1769,546.2636 1169.2048,545.81793 1172.7642,546.7848 C1176.3235,547.7516 1174.1079,547.6433 1175.0696,548.47736 C1176.0314,549.3113 1176.8701,549.70374 1177.5731,550.9545 C1178.2762,552.20526 1177.9878,548.50226 1178.5851,554.731 C1179.1824,560.9598 1181.3623,565.4123 1180.5596,582.09845 C1179.7568,598.78455 1175.9862,625.6668 1174.5714,638.1617 C1173.1566,650.65656 1173.7086,642.8823 1173.4854,644.5726 C1173.2621,646.2628 1174.0059,645.6473 1173.4552,646.61304 C1172.9044,647.57874 1174.7104,644.90875 1170.7317,649.40137 C1166.753,653.894 1161.1786,660.2818 1153.5619,669.07623 C1145.9452,677.8706 1137.6991,686.2794 1132.6482,693.3734 C1127.5972,700.46735 1129.3319,697.23505 1128.307,704.54596 C1127.2821,711.8568 1128.7244,722.8897 1127.5234,729.92786 C1126.3228,736.96606 1133.43,731.4122 1122.3029,739.7368 C1111.1758,748.0614 1097.226,753.54114 1071.8878,771.55096 C1046.5496,789.5609 1019.1311,812.11115 995.61194,829.78613 C972.0928,847.46106 970.66565,846.1918 954.29224,859.92596 C937.9188,873.66016 926.5476,883.4777 913.745,898.4573 C900.9424,913.4369 900.3135,922.87756 890.2794,934.82385 C880.24524,946.77014 870.2672,952.551 863.57434,958.18896 C856.8816,963.827 856.8152,963.0138 856.8152,963.0138 C856.8152,963.0138 873.05054,958.9121 875.0576,959.7031 C877.06494,960.49414 874.32227,961.2145 866.8512,966.9686 C859.3801,972.7228 845.62195,983.3584 837.7024,988.4735 C829.78296,993.5886 829.20935,988.3755 827.25354,992.54443 C825.2976,996.7135 827.48145,1001.9009 827.923,1009.31836 C828.3644,1016.73584 829.86487,1022.4175 829.46094,1029.632 C829.057,1036.8464 825.1731,1040.3877 825.9033,1045.3906 C826.63354,1050.3937 830.1111,1051.5424 833.11194,1054.6467 C836.1128,1057.7513 838.2887,1058.3741 840.9076,1060.9132 C843.52625,1063.4523 845.1078,1060.9103 846.20605,1067.3422 C847.3042,1073.7742 847.4933,1085.9662 846.39844,1093.0728 C845.3037,1100.1794 848.21765,1095.1453 840.73206,1102.8752z"/>
    </svg>
    
    <svg title="halloween special" backgroundColor="#e1600e" id="grave">
        <path d="M826.745,1194.137l403.922-25.489l-103.922-590.196
	c0,0-47.059-186.275-247.059-150.98c-210.818,37.204-180.393,203.921-180.393,203.921L826.745,1194.137z"/>
        <polygon points="1252.235,1170.607 1362,734 1222.823,700.02 
	1240.471,605.902 1384,634 1412,512 1505,531 1479.687,654.921 1620.863,684.333 1595.373,788.255 1457,755 1346.353,1182.373 "/>
    </svg>
    
    <svg title="halloween special" backgroundColor="#e1600e" id="grass">
        <path class="path" d="M173.50427,492.1951 C176.97528,472.62198 172.51477,504.73282 184.30145,490.48514 C196.08813,476.23746 216.47412,458.63364 232.43799,420.9578 C248.40192,383.2819 248.16058,342.25882 264.12134,302.10532 C280.08203,261.95175 300.61633,238.87698 312.24146,220.19113 C323.86652,201.50528 324.22925,200.51968 322.24646,208.676 C320.26367,216.8323 311.6607,222.77847 302.32758,260.97366 C292.99445,299.16873 280.214,357.2653 275.5813,399.65274 C270.94873,442.0402 276.96033,456.65988 279.16486,472.91043 C281.3694,489.16104 280.7118,483.8475 286.6045,480.90512 C292.4972,477.9628 298.66486,472.81454 308.62878,458.19913 C318.59277,443.58377 327.937,423.5483 336.42468,407.8292 C344.91248,392.11002 348.17194,385.45804 351.0669,379.603 C353.9618,373.74796 351.0515,375.6539 350.89996,378.55496 C350.7484,381.45596 348.48297,385.0612 350.30914,394.10928 C352.13538,403.15732 355.30396,416.1174 360.03064,423.7952 C364.7574,431.47305 370.2508,430.46152 373.94324,432.49887 C377.63562,434.53622 376.7915,438.93997 378.49243,433.98245 C380.1933,429.02505 382.43018,428.90634 382.44708,407.71158 C382.46405,386.51675 376.44873,356.2167 378.57776,328.00748 C380.70673,299.79825 389.5503,279.90164 393.09167,266.66605 C396.63306,253.43039 394.1172,252.5386 396.28412,261.8304 C398.45105,271.12222 395.07043,288.5311 403.9264,313.12448 C412.7824,337.71786 427.71045,365.48148 440.56396,384.79733 C453.4176,404.1132 460.56635,408.06973 468.1941,409.70438 C475.82178,411.33902 473.8128,411.7809 478.70325,392.9695 C483.5937,374.1581 495.5033,349.46988 492.64673,315.64822 C489.79028,281.8267 476.99915,255.00467 464.4209,223.86258 C451.84253,192.72055 435.0995,171.73929 429.75574,159.93802 C424.412,148.13675 424.66315,150.84866 437.70166,164.85574 C450.74017,178.86288 474.11328,197.60544 494.948,229.97415 C515.7828,262.3428 531.61475,294.14188 541.8749,326.69974 C552.135,359.2576 545.81445,375.67984 546.24866,392.76395 C546.6829,409.848 543.5882,410.62845 544.0457,412.11954 C544.5033,413.61063 544.7634,412.58054 548.5358,400.21817 C552.3083,387.85574 561.73175,377.4332 562.9078,350.30814 C564.0838,323.183 559.91003,299.32352 554.4164,264.59317 C548.92267,229.86282 537.9,206.44522 535.4391,176.65701 C532.9781,146.8688 540.724,129.31314 542.112,115.65311 C543.5,101.99307 542.96136,102.51077 542.3788,108.35574 C541.7962,114.200714 536.2474,121.97287 539.1985,144.87698 C542.1496,167.78116 548.7648,197.1047 557.1346,222.87546 C565.5044,248.64621 574.1479,261.75198 581.04816,273.73184 C587.94836,285.7117 588.8253,286.33585 591.63574,282.77567 C594.44617,279.21548 594.4639,265.98245 595.09973,255.93192 C595.7356,245.88138 593.6463,234.67197 594.81525,232.52225 C595.98413,230.37259 596.527,235.66122 600.944,245.18405 C605.36096,254.70682 610.9455,269.3196 616.90045,280.13638 C622.8554,290.95316 626.18274,299.6149 630.7192,299.26736 C635.2557,298.9197 637.1603,299.73306 639.5834,278.3984 C642.0065,257.06375 639.98956,230.15744 642.83417,192.59445 C645.6788,155.03146 646.19965,125.52298 653.80646,90.583405 C661.41327,55.64377 672.48065,36.013123 680.8684,17.896362 C689.25635,-0.22042847 695.40063,-5.0687256 695.7456,0.0 C696.0906,5.0687256 686.9336,12.377228 682.59375,43.24057 C678.25385,74.10388 674.51404,114.11862 674.0467,154.31558 C673.57935,194.5126 678.03845,221.06699 680.2573,244.22604 C682.4761,267.38504 682.1902,268.65726 685.1406,270.1107 C688.0908,271.56412 683.97375,271.80258 695.00854,251.4932 C706.04346,231.1838 728.6948,187.86166 740.31433,168.56485 C751.93384,149.26804 755.0897,148.3906 753.1067,155.00919 C751.12366,161.62778 735.68726,181.06448 730.39856,201.65897 C725.11,222.25339 727.4109,243.2272 726.66406,257.98196 C725.91724,272.73672 723.17456,275.95572 726.6643,275.4327 C730.15405,274.9097 732.75757,271.22025 744.1133,255.3671 C755.4689,239.51389 772.02356,214.53848 783.4429,196.16739 C794.86206,177.79623 797.5615,170.48135 801.20935,163.51254 C804.8572,156.54373 801.94824,156.13358 801.68225,161.32364 C801.41626,166.5137 800.3043,171.14267 799.8794,189.46347 C799.45435,207.78421 799.09546,235.80002 799.5571,252.92703 C800.01904,270.054 799.9507,271.15878 802.18774,275.0994 C804.4248,279.04007 805.4695,276.31284 810.7427,272.62967 C816.016,268.94656 824.3711,256.01352 828.5543,256.68277 C832.7377,257.35196 827.2228,264.98898 831.6592,275.9753 C836.09546,286.96158 845.1024,302.6707 850.7363,311.6138 C856.3701,320.55698 853.34985,323.77225 859.82837,320.69046 C866.30676,317.6088 873.4214,315.7675 883.12854,296.20523 C892.8357,276.64297 902.8058,250.0037 908.365,222.87918 C913.9241,195.75461 910.58936,174.42361 910.92444,160.58182 C911.2595,146.74002 908.7551,149.03226 910.04065,153.66916 C911.3262,158.30606 912.4995,153.39041 917.3523,183.76627 C922.2051,214.14212 929.98413,273.23428 934.30493,305.54733 C938.62573,337.86038 935.9634,334.64676 938.9564,345.33102 C941.94946,356.0153 945.9717,353.88895 949.2698,358.9683 C952.568,364.04764 954.19946,367.96658 955.4468,370.7277 C956.6941,373.4888 954.958,373.05118 955.5061,372.77512 C956.0542,372.49905 953.73706,381.25778 958.188,369.34634 C962.6389,357.43484 971.2273,336.3715 977.76013,313.21878 C984.29297,290.06613 987.87695,270.45987 990.8518,253.58249 C993.8269,236.70505 992.3967,221.04532 992.6355,228.8328 C992.87415,236.62027 991.4833,254.11551 992.0459,292.5189 C992.6085,330.92227 996.9923,385.76938 995.4486,420.84982 C993.9049,455.93027 988.3391,455.81583 984.32764,467.92105 C980.31616,480.02628 974.70593,480.3102 975.3911,481.376 C976.0763,482.4418 981.0585,479.63254 987.7534,473.2499 C994.44836,466.86728 990.49304,470.59335 1008.8661,449.46292 C1027.2391,428.3325 1058.7068,399.81326 1079.6189,367.59775 C1100.531,335.38223 1106.04,299.00772 1113.4264,288.3854 C1120.8131,277.7631 1117.4282,279.56522 1116.551,314.48575 C1115.6738,349.40628 1112.7058,421.17026 1109.0399,462.98868 C1105.374,504.80704 1100.2844,511.62723 1098.2213,523.5781 C1096.1582,535.52905 1097.908,524.81726 1098.7245,522.7433 C1099.541,520.66943 1100.6211,517.7366 1102.304,513.2085 C1103.9868,508.68033 1100.9459,516.06396 1107.1387,500.10257 C1113.3314,484.14114 1123.7855,458.723 1133.2677,433.4012 C1142.7499,408.07944 1149.8018,384.43704 1154.5493,373.49362 C1159.297,362.5502 1156.238,362.44632 1157.0068,378.6837 C1157.7758,394.92105 1158.365,432.9943 1158.394,454.67923 C1158.4232,476.36417 1153.3425,480.79587 1157.1515,487.10782 C1160.9604,493.41977 1171.0684,492.94528 1177.4391,486.2391 C1183.8098,479.53293 1187.6572,440.8477 1189.0051,453.57693 C1190.353,466.30618 1183.7933,530.9448 1184.1787,549.8855 C1184.5641,568.82605 1182.8682,562.447 1190.9319,548.28 C1198.9956,534.1129 1217.166,501.3179 1224.4972,479.05014 C1231.8284,456.78238 1224.3989,425.95724 1227.5875,436.94113 C1230.7761,447.92502 1236.7748,514.5399 1240.4402,533.9696 C1244.1056,553.3993 1241.8696,548.5198 1245.9146,534.0895 C1249.9595,519.6592 1256.2764,484.92166 1260.6648,461.81808 C1265.0532,438.7145 1265.4426,445.2159 1267.8566,418.57175 C1270.2705,391.92758 1271.6309,345.27737 1272.7347,328.5972 C1273.8386,311.91702 1271.4281,307.626 1273.3759,335.1708 C1275.3236,362.71548 1279.5651,425.79868 1282.4747,466.32047 C1285.3844,506.84225 1284.3936,530.5128 1287.9244,537.77966 C1291.4553,545.0465 1294.3494,525.2417 1300.129,502.6547 C1305.9087,480.06772 1311.0417,449.37247 1316.823,424.84488 C1322.6042,400.3173 1325.7927,393.07755 1329.0352,380.0167 C1332.2776,366.95584 1332.0228,364.67258 1333.0352,359.54062 C1334.0475,354.40866 1334.0266,353.70773 1334.097,354.3569 C1334.1675,355.00607 1336.8696,341.33292 1333.3872,362.7866 C1329.9048,384.24026 1320.4424,420.6035 1316.6848,461.62527 C1312.9272,502.64706 1314.7104,542.6229 1314.5992,567.8954 C1314.488,593.16785 1316.7189,583.9375 1316.129,587.9874 C1315.5392,592.03735 1312.1382,588.511 1311.6499,588.1449 C1311.1616,587.7788 1313.0817,586.67456 1313.6879,586.15686 C1314.294,585.63916 1314.482,586.15735 1314.6808,585.557 C1314.8795,584.95667 1308.6041,585.5576 1314.6808,583.15515 C1320.7574,580.7527 1334.9315,584.46436 1345.0643,573.5447 C1355.1971,562.625 1358.9944,541.2776 1365.3448,528.55676 C1371.6953,515.83594 1374.5222,512.25854 1376.8165,509.9404 C1379.1108,507.62222 1375.9791,498.7626 1376.8165,516.96533 C1377.6539,535.1681 1374.7699,580.5458 1381.0035,600.9541 C1387.2372,621.3624 1400.7878,614.10144 1407.9846,619.00696 C1415.1814,623.9125 1399.521,618.56995 1416.9874,625.4818 C1434.4539,632.3937 1520.5483,647.1482 1495.317,653.5665 C1470.0857,659.98486 1370.0292,656.6199 1290.831,657.5737 C1211.6329,658.5276 1171.2821,656.9867 1099.3263,658.33606 C1027.3705,659.6854 1017.87537,662.6113 931.05225,664.32056 C844.2291,666.0298 766.2479,668.975 665.21094,666.8821 C564.17395,664.7892 527.2034,654.9956 425.8672,653.8563 C324.53094,652.71704 237.1076,660.21533 158.52972,661.1858 C79.95184,662.15625 43.487823,664.59534 32.977844,658.7084 C22.467865,652.8214 93.12491,657.10486 105.9798,631.7511 C118.83469,606.39734 111.50952,575.5314 97.25232,531.93945 C82.99512,488.3477 54.1445,443.40463 34.69403,413.79178 C15.243561,384.179 -3.5429688,380.8408 0.0,383.87637 C3.5429688,386.91202 22.468353,390.30862 52.408356,428.97098 C82.34836,467.63333 125.51221,536.83606 149.70007,577.18823 C173.88794,617.5405 169.89844,628.49963 173.34772,630.7322 C176.797,632.9647 166.91522,616.0581 166.94653,588.3507z"/>
    </svg>
    
    <svg title="halloween special" backgroundColor="#e1600e" id="bat">
        <path d="M1729.693,662.242c-23.968,13.649-53.397,33.65-93.97,48.841c-40.573,15.19-70.925,23.183-108.896,27.111
		s-54.695-1.689-80.957-7.466c-26.262-5.775-37.79-16.487-50.353-21.414c-12.563-4.926-5.865-9.107-12.463-3.217
		s-3.545,14.369-20.527,32.671c-16.983,18.302-39.319,44.041-64.388,58.839c-25.069,14.798-39.868,19.596-60.956,15.151
		c-21.089-4.444-32.896-22.396-44.487-37.374s-10.218-21.092-13.473-37.518c-3.168-15.99-1.15-37.133-2.673-44.072
		c0.124,2.976-0.723,8.197-6.173,12.48c-10.207,8.021-30.827,29.34-44.992,27.081s-20.631-28.021-25.832-38.375
		c-3.135-6.242-0.478-12.388,0.876-14.741c-0.262,0.352-0.599,0.79-1.049,1.346c-5.715,7.062-11.4,35.485-28.4,48.71
		s-33.319,18.419-56.602,17.411c-23.281-1.009-41.439-5.808-59.806-22.452c-18.365-16.645-24.062-43.33-32.021-60.771
		c-7.96-17.442-7.78-26.438-7.78-26.438s1.055-1.903-9.631-6.116c-10.687-4.213-6.269,2.658-43.798-14.948
		c-37.529-17.607-92.689-38.512-143.85-73.086s-78.442-72.361-111.951-99.785c-33.509-27.425-42.903-29.711-55.592-37.338
		c-12.688-7.629-8.793-2.756-7.85-0.802s1.214-5.581,12.565,10.57s33.512,35.021,44.192,70.187
		c10.68,35.166,10.066,77.282,9.208,105.642c-0.851,28.154-11.038,28.793-13.441,36.002c0.567,0.2,1.2,0.459,1.914,0.8
		c10.658,5.08,34.703,7.862,51.324,24.757c16.621,16.894,28.626,35.107,31.781,59.714c3.156,24.606-13.771,49.944-16.002,63.317
		c-0.388,2.325-0.905,3.977-1.422,5.131c1.303-0.669,3.308-1.298,6.269-1.584c13.573-1.312,36.978-10.706,63.021-10.104
		s43.118,3.67,67.198,13.11c24.078,9.441,38.299,17.929,53.197,34.093c14.898,16.165,17.354,31.946,21.295,46.732
		c3.941,14.785-4.24,26.009-1.588,27.197c2.651,1.188,0.83-11.227,14.846-21.258s32.242-25.174,55.233-28.9
		c22.991-3.726,38.758-2.523,59.725,10.27c20.967,12.792,33.044,27.232,45.109,53.693l15.217,78.609
		c7.331,12.687,0.657,8.083,21.437-15.18c18.721-22.737,49.019-45.757,82.387-52.724c33.369-6.968,60.113,7.537,84.456,17.887
		c24.343,10.351,27.916,24.964,37.258,33.863s3.635,13.197,9.45,10.632c5.815-2.564,2.611-10.139,19.626-23.457
		c17.014-13.316,36.198-33.044,65.444-43.13c29.246-10.087,54.749-10.221,80.783-7.302c26.035,2.92,37.264,16.447,49.391,21.898
		s8.255,9.031,11.246,5.357c2.99-3.674-2.674-7.265,3.707-23.728c6.381-16.464,10.453-40.914,28.198-58.59
		c17.744-17.675,37.613-26.551,60.525-29.786c22.913-3.234,42.587,10.576,54.036,13.613c1.283,0.341,2.313,0.714,3.152,1.098
		c-0.998-6.839-12.761-11.924-5.641-36.548c7.282-25.189,24.787-58.642,42.113-88.927s35.267-49.284,44.517-62.501
		c1.596-2.281,2.829-3.964,3.765-5.19c-0.604,0.557-1.293,1.12-2.033,1.604C1750.734,646.003,1753.66,648.594,1729.693,662.242z
		 M1094.234,760.03c-8.5-3-7.75-16-7.75-16s10.371,6.793,13.75,7.833c5.417,1.667,10.25,1.667,10.25,1.667
		S1102.734,763.03,1094.234,760.03z M1147.583,767.709c-8.816,0.589-13.477-10.634-13.477-10.634s4.542,1.305,10.092,1.166
		c3.463-0.088,15.085-3.817,15.085-3.817S1156.4,767.121,1147.583,767.709z"/>
    </svg>
    
    <svg title="halloween special" backgroundColor="#e1600e" id="pumkin1">
        <path d="M1774.926,833.805c-2.625-44.509-12.286-77.13-34.971-104.644c-22.685-27.515-59.938-23.537-78.452-32.927
	c-6.306-3.198-8.499-3.703-9.149-3.708c0.348-0.399,0.433-2.345-4.968-10.314l-48.4-78.225
	c-29.807-24.696-56.543-36.779-100.635-45.259c-44.092-8.479-82.695-3.689-119.822,2.863s-52.447,25.096-65.812,29.9
	c-13.364,4.804-8.149,6.407-1.011-5.88c7.139-12.286,16.904-30.752,36.704-55.553c19.8-24.802,46.968-52.032,62.295-68.454
	s20.771-6.734,14.339-13.656c-6.433-6.922-31.342-10.375-46.499-20.953s-17.982-32.712-29.289-31.938s-13.601,6.896-27.243,35.806
	s-29.787,79.521-40.969,108.741c-9.226,24.11-11.062,30.303-13.351,34.675c0.064-2.243-0.789-5.177-3.81-8.49
	c-9.007-9.882-17.045-27.678-42.814-38.228s-56.416-14.557-86.034-14.523c-29.617,0.034-41.108,5.642-62.054,14.691
	c-20.944,9.05-31.1,23.675-42.669,30.558c-11.568,6.883-1.427,9.071-15.175,3.855c-13.748-5.215-21.804-29.258-53.566-29.933
	s-65.957-6.77-105.248,26.559c-39.291,33.329-69.595,77.329-91.208,140.084s-24.486,109.664-16.859,173.691
	s22.679,89.736,54.993,146.449c32.315,56.711,53.4,88.535,106.579,137.109s86.932,79.416,159.314,105.762
	c72.383,26.344,122.81,27.1,202.599,25.965c79.79-1.137,125.019-5.332,196.35-31.646c71.332-26.314,110.306-58.041,160.309-99.93
	c50.002-41.887,64.77-68.6,89.704-109.508c24.936-40.91,23.607-52.453,34.972-95.041S1777.55,878.312,1774.926,833.805z
	 M1311.47,842.598c12.971-1.856,125.565-48.437,130.542-48.417c4.975,0.019,19.432,46.443-3.463,66.049
	c-22.896,19.604-89.841,54.288-128.963,33.813c-39.121-20.475-50.316-39.569-40.773-59.229
	C1271.737,828.791,1298.501,844.454,1311.47,842.598z M1001.002,716.125c6,1.5,125.993,86.996,140.993,92.996
	s52.498-2.999,53.998,4.5c4.896,24.479-14.999,41.998-68.997,52.497s-122.994-47.998-143.993-76.496
	C962.004,761.123,995.002,714.625,1001.002,716.125z M1524.476,1094.105l-14.999-37.498l-77.996,28.499l13.499,35.998
	l-95.995,17.999l-31.498-46.498l-58.086,3.425l-8,69l-110.905-18.427l4.5-64.497l-70.594-13.076l-30,58l-92-67l33.603-43.921
	l-53.998-44.997l-38.998,29.998l-52.498-88.495l192.891,46.415l-17,39l61.098,25.578l32.902-47.578l60,12l2,56l60,10l22-52l65,5
	l13.085,55.577l74.915-0.577l4-54l188.071,8.079L1524.476,1094.105z"/>
    </svg>
    
    <svg title="halloween special" backgroundColor="#e1600e" id="pumkin2">
        <path d="M1789.926,870.038c-2.625-48.895-12.286-84.73-34.971-114.955c-22.685-30.226-59.938-25.856-78.452-36.171
	c-6.306-3.513-8.499-4.068-9.149-4.074c0.348-0.439,0.433-2.576-4.968-11.33l-48.4-85.933
	c-29.807-27.129-56.543-40.403-100.635-49.718s-44.012-4.872-81.139,2.326c-37.127,7.199-64.447,3.569-77.812,8.847
	c-13.364,5.277-8.149,7.039-1.011-6.459c7.139-13.497,28.904-9.782,48.704-37.026c19.8-27.246,8.284-56.34,23.611-74.38
	s20.771-7.398,14.339-15.002c-6.433-7.604-31.342-11.397-46.499-23.018c-15.157-11.62-17.982-35.935-29.289-35.085
	s-13.601,7.576-27.243,39.333c-13.643,31.758,12.92,80.447,1.738,112.546c-9.226,26.485-11.062,33.289-13.351,38.091
	c0.064-2.464-0.789-5.687-3.81-9.327c-9.007-10.855-52.421-27.084-78.19-38.673s-63.747-12.402-93.365-12.366
	c-29.617,0.038-41.108,6.198-62.054,16.139c-20.944,9.941-31.1,26.008-42.669,33.568c-11.568,7.561-1.427,9.965-15.175,4.235
	c-13.748-5.729-21.804-32.141-53.566-32.882s-65.957-7.437-105.248,29.176c-39.291,36.613-69.595,84.948-91.208,153.887
	s-24.486,120.469-16.859,190.806c7.627,70.336,22.679,98.578,54.993,160.879c32.315,62.299,53.4,97.259,106.579,150.619
	s86.932,87.241,159.314,116.184c72.383,28.939,122.81,29.77,202.599,28.522c79.79-1.248,125.019-5.857,196.35-34.765
	c71.332-28.907,110.306-63.76,160.309-109.775c50.002-46.015,64.77-75.359,89.704-120.299
	c24.936-44.94,23.607-57.621,34.972-104.405S1792.55,918.932,1789.926,870.038z M1324.401,679.03c36.451,0,66,29.549,66,66
	c0,36.451-29.549,66-66,66s-66-29.549-66-66C1258.401,708.58,1287.949,679.03,1324.401,679.03z M1166.401,665.03
	c27.614,0,50,22.386,50,50s-22.386,50-50,50s-50-22.386-50-50S1138.786,665.03,1166.401,665.03z M1624.401,971.03l-63.925,106.075
	l-14.999-37.498l-77.996,28.499l13.499,35.998l-95.995,17.999l-31.498-46.498l-58.086,3.425l-8,69l-110.905-18.427l4.5-64.497
	l-70.594-13.076l-30,58l-92-67l33.603-43.921l-53.998-44.997l-38.998,29.998L864.51,773.615l178.891,67.415l14,52l64,14l29-54l56,18
	l6,50l57.309,10.918l18.691-56.918l74,4l10,52l73-14l7-40l215-38L1624.401,971.03z"/>
    </svg>
